<?xml version="1.0" encoding="utf-8"?>

<!DOCTYPE svg PUBLIC "-//W3C//DTD SVG 1.1//EN" "http://www.w3.org/Graphics/SVG/1.1/DTD/svg11.dtd">
<svg version="1.1" id="Layer_1" xmlns="http://www.w3.org/2000/svg" xmlns:xlink="http://www.w3.org/1999/xlink" x="0px" y="0px"
	 viewBox="0 0 2622.363 1217.539" enable-background="new 0 0 2622.363 1217.539" xml:space="preserve">
<path d="M1311.181,31.935c3.355-1.337,6.335,2.471,10.626,11.268c35.926,73.639,142.553,118.456,282.081,118.565
	c68.903,0.054,202.122-16.395,307.972-38.025c101.418-20.725,125.922-25.469,149.846-29.015
	c213.399-31.621,349.203,18.226,397.37,145.84c20.617,54.63,6.882,125.225-32.344,166.236l-6.07,6.345l17.484,0.866
	c87.79,4.35,144.464,79.012,153.033,194.753c-8.569,115.741-65.243,190.403-153.033,194.753l-17.484,0.866l6.07,6.345
	c39.226,41.011,52.96,111.606,32.344,166.236c-48.167,127.615-183.971,177.461-397.37,145.84
	c-23.925-3.545-48.428-8.289-149.846-29.015c-105.85-21.63-239.069-38.079-307.972-38.025
	c-139.528,0.11-246.155,44.926-282.081,118.565c-4.291,8.797-7.271,12.605-10.626,11.268c-3.355,1.337-6.335-2.471-10.626-11.268
	c-35.926-73.639-142.553-118.456-282.081-118.565c-68.903-0.054-202.122,16.395-307.972,38.025
	c-101.418,20.725-125.922,25.469-149.846,29.015c-213.399,31.621-349.203-18.226-397.37-145.84
	c-20.617-54.63-6.882-125.225,32.344-166.236l6.069-6.345l-17.484-0.866c-87.79-4.35-144.464-79.012-153.033-194.753
	c8.569-115.741,65.243-190.403,153.033-194.753l17.484-0.866l-6.069-6.345c-39.226-41.011-52.96-111.606-32.344-166.236
	c48.167-127.615,183.971-177.461,397.37-145.84c23.924,3.545,48.428,8.289,149.846,29.015
	c105.85,21.63,239.069,38.079,307.972,38.025c139.528-0.11,246.155-44.926,282.081-118.565
	C1304.846,34.405,1307.826,30.597,1311.181,31.935z M2518.362,608.77c-5.165-39.71-20.034-71.695-44.363-100.353
	c-18.128-21.351-47.206-26.447-68.918-12.079c-7.168,4.744-7.242,5.775-0.582,8.183c33.138,11.983,31.395,71.262-2.39,81.294
	c-60.865,18.076-112.476-69.38-72.281-122.484c3.346-4.421,6.084-8.297,6.084-8.613c0-0.316-7.858-0.824-17.462-1.129
	c-86.169-2.735-106.741-127.797-21.053-127.979c22.619-0.048,46.228,19.024,46.238,37.352c0,11.823,24.547-9.761,33.953-29.863
	c27.465-58.692-8.229-125.43-81.068-151.581c-54.961-19.732-118.618-15.428-359.939,24.334
	c-150.203,24.749-193.471,29.771-278.065,32.279c-147.544,4.233-265.768-25.366-335.856-84.227l-10.905-9.157l-0.573,0.511
	l-0.573-0.511l-10.905,9.157c-70.088,58.862-188.312,88.46-335.856,84.227c-84.594-2.507-127.862-7.529-278.065-32.279
	c-241.322-39.762-304.978-44.066-359.939-24.334c-72.839,26.15-108.533,92.889-81.068,151.581
	c9.406,20.101,33.953,41.686,33.953,29.863c0.009-18.328,23.619-37.4,46.238-37.352c85.689,0.182,65.117,125.244-21.053,127.979
	c-9.604,0.305-17.462,0.813-17.462,1.129c0,0.316,2.738,4.192,6.084,8.613c40.194,53.104-11.416,140.56-72.281,122.484
	c-33.785-10.032-35.527-69.311-2.39-81.294c6.66-2.408,6.586-3.439-0.582-8.183c-21.712-14.368-50.79-9.272-68.918,12.079
	C124.034,537.075,109.166,569.06,104,608.77c5.165,39.71,20.034,71.695,44.363,100.353c18.128,21.351,47.206,26.447,68.918,12.079
	c7.168-4.744,7.242-5.775,0.582-8.183c-33.138-11.983-31.395-71.262,2.39-81.294c60.865-18.076,112.476,69.38,72.281,122.484
	c-3.346,4.421-6.084,8.297-6.084,8.613c0,0.316,7.858,0.824,17.462,1.129c86.169,2.735,106.741,127.797,21.053,127.979
	c-22.619,0.048-46.228-19.024-46.238-37.352c0-11.823-24.547,9.761-33.953,29.863c-27.465,58.692,8.229,125.43,81.068,151.581
	c54.961,19.732,118.618,15.428,359.939-24.334c150.203-24.749,193.471-29.771,278.065-32.279
	c147.544-4.233,265.768,25.366,335.856,84.227l10.905,9.156l0.573-0.511l0.573,0.511l10.905-9.156
	c70.088-58.862,188.312-88.46,335.856-84.227c84.594,2.507,127.862,7.529,278.065,32.279
	c241.321,39.762,304.978,44.065,359.939,24.334c72.839-26.15,108.533-92.889,81.068-151.581
	c-9.406-20.101-33.953-41.686-33.953-29.863c-0.009,18.328-23.619,37.4-46.238,37.352c-85.689-0.182-65.117-125.244,21.053-127.979
	c9.604-0.305,17.462-0.813,17.462-1.129c0-0.316-2.738-4.192-6.084-8.613c-40.194-53.104,11.416-140.56,72.281-122.484
	c33.785,10.032,35.527,69.311,2.39,81.294c-6.66,2.408-6.586,3.439,0.582,8.183c21.712,14.368,50.79,9.272,68.918-12.079
	C2498.328,680.464,2513.197,648.48,2518.362,608.77z M2576.868,608.77c-5.774-72.652-31.515-130.055-72.526-158.027
	c-82.401-56.197-196.128-0.253-169.959,83.605c14.776,47.344,80.354,55.462,80.354,9.948c0-22.981-16.328-33.06-37.747-23.299
	l-11.871,5.41l5.885-11.018c26.952-50.458,82.386-55.934,117.603-11.616c24.319,30.603,39.137,64.058,44.191,104.997
	c-5.054,40.939-19.873,74.395-44.191,104.997c-35.217,44.318-90.651,38.841-117.603-11.617l-5.885-11.018l11.871,5.41
	c21.419,9.762,37.747-0.318,37.747-23.299c0-45.514-65.579-37.396-80.354,9.948c-26.169,83.858,87.558,139.802,169.959,83.605
	C2545.353,738.825,2571.094,681.422,2576.868,608.77z M45.495,608.77c5.773,72.652,31.515,130.055,72.526,158.027
	c82.401,56.197,196.128,0.253,169.959-83.605c-14.776-47.344-80.355-55.462-80.355-9.948c0,22.98,16.328,33.06,37.747,23.299
	l11.871-5.41l-5.885,11.018c-26.952,50.458-82.386,55.934-117.603,11.617c-24.319-30.603-39.137-64.058-44.191-104.997
	c5.054-40.939,19.873-74.395,44.191-104.997c35.217-44.318,90.651-38.841,117.603,11.616l5.885,11.018l-11.871-5.41
	c-21.419-9.762-37.747,0.318-37.747,23.299c0,45.513,65.579,37.396,80.355-9.948c26.169-83.858-87.558-139.802-169.959-83.605
	C77.009,478.715,51.268,536.118,45.495,608.77z M1311.181,127.315c3.41-0.32,6.597,3.02,13.895,9.836
	c43.757,40.863,134.352,75.745,217.478,83.735c96.393,9.264,210.912,1.056,382.339-27.405
	c247.539-41.096,313.039-45.824,371.386-26.804c86.413,28.163,127.958,109.004,91.587,178.224
	c-13.464,25.621-53.328,49.716-55.913,33.796c-4.833-29.781-12.88-38.458-35.543-38.323c-32.796,0.193-50.787,29.909-36.01,59.481
	c19.63,39.281,61.883,50.857,107.071,29.33c6.797-3.238,16.319-7.742,21.159-10.008c63.104-29.552,84.485-131.256,42.882-203.976
	c-67.508-117.838-206.54-142.451-480.434-85.003c-92.07,19.322-188.466,34.318-274.203,42.72
	c-162.081,15.867-302.689-25.069-356.541-103.783l-8.36-12.22l-0.794,1.175l-0.794-1.175l-8.36,12.22
	c-53.852,78.714-194.46,119.65-356.541,103.783c-85.737-8.402-182.132-23.398-274.203-42.72
	C397.39,72.748,258.357,97.362,190.85,215.199c-41.603,72.72-20.221,174.424,42.882,203.976c4.84,2.267,14.362,6.771,21.159,10.008
	c45.187,21.527,87.441,9.952,107.07-29.33c14.777-29.572-3.213-59.288-36.009-59.481c-22.663-0.134-30.71,8.543-35.543,38.323
	c-2.584,15.921-42.449-8.175-55.913-33.796c-36.371-69.22,5.174-150.061,91.587-178.224c58.347-19.02,123.847-14.293,371.386,26.804
	c171.427,28.461,285.946,36.669,382.339,27.405c83.126-7.99,173.721-42.871,217.478-83.735
	C1304.584,130.335,1307.771,126.995,1311.181,127.315z M1311.181,1090.224c-3.411,0.319-6.597-3.02-13.895-9.836
	c-43.757-40.863-134.352-75.745-217.478-83.735c-96.393-9.264-210.912-1.056-382.339,27.405
	c-247.539,41.096-313.039,45.823-371.386,26.804c-86.413-28.163-127.958-109.004-91.587-178.224
	c13.464-25.621,53.328-49.716,55.913-33.796c4.833,29.781,12.88,38.458,35.543,38.323c32.796-0.193,50.787-29.909,36.009-59.481
	c-19.63-39.281-61.883-50.857-107.07-29.33c-6.797,3.238-16.319,7.742-21.159,10.008c-63.104,29.552-84.485,131.256-42.882,203.976
	c67.508,117.838,206.54,142.451,480.434,85.003c92.07-19.322,188.466-34.318,274.203-42.72
	c162.081-15.867,302.689,25.069,356.541,103.783l8.36,12.22l0.794-1.175l0.794,1.175l8.36-12.22
	c53.852-78.714,194.46-119.65,356.541-103.783c85.737,8.402,182.132,23.398,274.203,42.72
	c273.894,57.448,412.926,32.835,480.434-85.003c41.603-72.72,20.221-174.424-42.882-203.976c-4.84-2.267-14.362-6.771-21.159-10.008
	c-45.187-21.527-87.441-9.952-107.071,29.33c-14.777,29.572,3.213,59.288,36.01,59.481c22.663,0.134,30.71-8.543,35.543-38.323
	c2.584-15.921,42.449,8.175,55.913,33.796c36.371,69.22-5.174,150.061-91.587,178.224c-58.347,19.02-123.847,14.293-371.386-26.804
	c-171.427-28.461-285.946-36.669-382.339-27.405c-83.126,7.99-173.721,42.871-217.478,83.735
	C1317.778,1087.204,1314.592,1090.544,1311.181,1090.224z"/>
</svg>
