<?xml version="1.0" encoding="utf-8"?>

<!DOCTYPE svg PUBLIC "-//W3C//DTD SVG 1.1//EN" "http://www.w3.org/Graphics/SVG/1.1/DTD/svg11.dtd">
<svg version="1.1" id="Layer_1" xmlns="http://www.w3.org/2000/svg" xmlns:xlink="http://www.w3.org/1999/xlink" x="0px" y="0px"
	 viewBox="0 0 2695.965 1650.026" enable-background="new 0 0 2695.965 1650.026" xml:space="preserve">
<g>
	<path opacity="0.85" enable-background="new    " d="M686.889,58.935c49.824-3.676,71.022,65.044,34.241,107.395
		c-23.56,27.371-64.608,36.696-99.661,21.067c-6.815-2.741-13.205-6.405-19.589-9.997c17.063,23.921,17.888,59.868-1.94,80.241
		c-15.546,16.401-43.274,17.258-57.952,2.032c-1.632-1.509-2.823-3.408-4.357-5.009c-11.194,77.261-129.228,108.686-187.63,0.708
		c-4.072,25.564-36.67,39.088-58.486,26.908c12.961,26.034-4.219,55.045-26.882,58.537c91.171,50.544,82.174,138.199,34.349,172.824
		c-17.386,12.822-33.372,14.277-35.042,14.981c6.4,4.465,11.306,11.014,13.749,18.429c15.383,45.115-45.596,77.885-91.377,45.522
		c25.043,39.789,21.747,77.346,2.407,104.752c-39.25,56.97-122.909,32.929-120.702-14.981
		c-1.205-30.885,31.905-48.616,54.775-34.283c13.313,8.441,16.513,25.715,9.248,37.767c-7.91,14.274-26.955,15.387-32.03,6.513
		c-6.663-12.931,12.275-20.908,16.464-6.944c13.874-4.326,11.686-28.611-7.939-31.537c-36.401-3.359-43.848,48.041-3.675,63.012
		c59.936,23.139,123.488-55.553,69.474-126.62c-3.002,10.167-10.659,19.092-20.867,22.438c0.123,30.952-0.051,61.904,0.087,92.855
		c-2.407,1.534-5.014,3.018-7.862,3.48c0.01-35.206-0.062-70.413,0.036-105.614c1.119-0.373,12.894-0.633,18.06-15.027
		c6.311-16.859-3.729-22.716-9.187-42.633c-5.19-20.691-3.974-5.625-3.936-341.84c2.982-0.231,5.969-0.426,8.93-0.837
		c-0.082,5.794,0.036,11.593-0.056,17.388c18.331-22.351,59.521-2.56,47.693,33.713c22.588-7.814,42.656-5.866,59.635,3.397
		c-9.255-16.885-11.384-37.748-3.48-59.599c-36.225,11.605-56.146-29.372-33.759-47.693c-5.774,0.108-11.542-0.026-17.316,0.062
		c0.277-2.971,0.718-5.928,0.867-8.909c364.023-0.327,327.003-3.139,363.431,12.82c15.274,6.429,33.716-2.157,35.617-15.848
		c1.065-2.841-12.216-1.933,92.691-1.986c4.547,0.067,9.109-0.144,13.657,0.133c-1.062,2.581-2.263,5.106-3.5,7.606
		c-31.039,0.195-62.094,0.072-93.138,0.062c-3.413,10.29-12.528,17.844-22.689,21.016c24.441,16.052,39.605,20.442,57.454,20.405
		c1.771,0.077,3.7-0.657,5.337,0.313c0.38-0.226-0.549-0.57-0.636-0.739c59.365-0.787,88.78-74.058,53.282-106.989
		c-26.577-25.537-66.154,4.525-47.888,30.449c7.31,10.513,24.387,9.884,27.729-1.36c-11.809-4.02-7.641-17.771,1.683-17.86
		c10.268,0.118,12.994,11.251,9.505,21.129c-6.022,16.175-28.802,21.561-42.91,9.34C642.862,103.105,651.825,62.18,686.889,58.935
		 M256.417,150.302c7.054,13.574-13.16,20.296-16.577,7.016c-10.644,3.279-11.549,18.328-3.218,26.441
		c8.634,8.236,23.909,7.033,32.989-0.908c5.977-5.394,14.294-20.206,36.166-32.574C289.325,150.364,272.871,150.302,256.417,150.302
		 M324.644,150.287c6.953,36.4,18.904,76.458,38.193,107.923c32.442,52.721,78.028,63.843,114.359,51.757
		c66.889-21.817,63.191-112.922,11.645-111.47c-31.117-0.045-39.945,44.245-11.747,49.171c4.911,0.785,10.038-1.273,13.133-5.148
		c-7.1-5.239-4.618-14.343,0.826-17.336c9.173-5.312,21.422,5.474,12.558,19.271c-13.59,20.785-48.17,18.378-54.508-9.31
		c-3.948-15.216,4.767-35.431,22.037-43.618c21.016-10.215,51.987-1.587,63.3,27.852c1.273-1.514,2.007-3.418,3.408-4.845
		c12.871-15.61,38.904-12.982,45.599,4.244c4.83,11.81-2.102,18.142-7.467,19.138c-8.536,1.343-15.805-10.745-5.435-17.408
		c-2.14-3.069-5.517-5.348-9.31-5.604c-25.088-2.54-27.882,40.242,3.967,45.378c54.004,6.969,65.893-110.633-49.145-109.966
		C452.254,150.297,388.452,150.353,324.644,150.287 M271.809,204.092c-14.346,43.636,20.851,85.709,54.216,68.539
		c29.526-15.878,7.866-58.813-14.519-43.202c-2.987,1.853-4.783,5.168-5.343,8.571c11.001-0.11,12.24,16.515,1.057,18.173
		c-16.898,2.398-21.459-33.131,8.063-39.456c5.922-0.903,12.245-0.801,17.757,1.801c-7.431-20.041-13.148-40.687-17.388-61.621
		C295.314,165.55,278.742,183.035,271.809,204.092 M173.313,223.091c-3.233,1.365-5.722,4.203-6.805,7.529
		c13.682,3.518,6.006,23.801-6.975,16.561c0.036,16.577,0.092,33.153-0.026,49.725c9.725-19.823,28.493-31.544,32.856-36.818
		C207.923,241.396,192.339,215.067,173.313,223.091 M189.413,275.68c-10.038,8.124-18.209,18.66-23.207,30.587
		c20.919,4.485,41.657,10.013,61.678,17.613c-5.938-11.524-1.405-29.33,10.911-36.351c9.532-5.748,26.033-2.968,26.636,8.381
		c1.221,11.994-17.927,13.908-18.245,0.929c-12.894,3.257-12.847,16.886-9.068,23.428c6.241,11.499,23.846,13.978,34.734,6.538
		c25.856-17.015,12.411-63.306-33.436-67.19C221.442,257.794,203.29,264.394,189.413,275.68 M159.533,315.397
		c0.275,208.83-1.191,206.532,2.864,224.186c6.519,31.51,33.374,54.845,62.145,55.853c43.694,1.487,55.12-38.522,36.854-55.658
		c-23.41-21.607-49.15,8.5-31.681,21.539c1.673-2.884,4.763-5.168,8.191-5.101c12.093-0.626,12.78,19.66-2.073,19.728
		c-25.835-1.097-30.774-38.417-7.195-50.562c-50.039-21.734-36.86-85.41,8.242-86.451c37.055,1.363,38.748,45.988,14.108,56.92
		c-13.927,5.76-20.464-6.044-16.864-13.482c3.217-6.764,13.299-8.053,17.619-1.381c12.94-10.19,0.333-34.824-21.314-29.53
		c-26.472,5.755-30.011,40.438-9.238,56.746c24.626,20.282,70.343,9.789,91.054-25.05c17.837-29.652,14.132-71.299-9.746-99.974
		c-24.654-29.82-65.592-47.278-102.555-58.157C186.636,321.186,173.139,317.974,159.533,315.397z"/>
	<path opacity="0.85" enable-background="new    " d="M1999.799,58.909c46.875-3.224,55.606,50.107,28.483,64.341
		c-15.173,8.434-35.878,0.331-39.04-16.217c-3.214-15.605,9.488-20.805,15.915-15.679c4.425,3.2,6.018,12.574-3.736,15.966
		c1.514,5.055,6.482,8.617,11.706,8.771c17.078,1.65,25.865-19.639,15.925-35.17c-8.729-13.809-32.224-17.973-48.334-2.181
		c-45.469,44.1,18.169,150.766,115.981,86.476c-10.167-3.125-19.281-10.706-22.674-20.99c-30.967,0.092-61.939-0.067-92.907,0.082
		c-1.565-2.407-2.576-5.106-3.736-7.714c4.74-0.328,100.913-0.173,106.173-0.036c0.382,15.631,22.196,25.437,38.532,16.402
		c20.767-11.312,41.49-11.509,65.009-11.563c313.837,0,290.821-0.048,295.743,0.128c0.062,2.936,0.405,5.856,0.877,8.75
		c-5.814,0.056-11.629,0.067-17.439,0c22.687,18.359,2.478,59.136-33.723,47.713c7.207,19.113,6.748,39.542-3.177,59.327
		c19.29-9.903,38.94-10.277,59.323-3.136c-11.546-36.202,29.088-55.983,47.749-33.728c-0.179-5.799-0.015-11.604-0.082-17.403
		c2.946,0.467,5.938,0.611,8.919,0.862c0,333.587,3.637,332.811-10.952,359.628c-10.627,19.846,1.782,39.262,15.879,39.656
		c0.023,6.035,0.174,101.408-0.062,106.091c-2.653-0.908-5.143-2.186-7.611-3.464c-0.251-31.029,0-62.073-0.128-93.107
		c-9.978-3.654-17.212-11.064-20.805-22.551c-63.348,90.916,35.888,161.36,84.244,117.869c16.653-14.998,14.268-35.827,4.906-46.061
		c-13.757-15.474-42.04-8.469-40.061,12.102c0.292,5.086,3.859,9.849,8.796,11.301c2.818-9.477,12.587-8.473,15.94-3.839
		c5.802,7.277-1.651,20.528-18.265,15.314c-16.599-5.315-22.608-28.288-11.039-42.458c10.716-13.641,33.695-15.471,48.93-2.325
		c20.512,18.107,18.181,56.322-16.449,72.347c-63.705,29.315-142.778-47.519-88.935-131.875
		c-8.386,5.902-18.019,9.972-28.093,11.865c-58.677,9.609-80.662-45.041-54.785-71.378c1.514-1.755,3.572-2.915,5.184-4.583
		c-77.44-12.147-108.152-127.968-0.688-187.625c-21.236-3.373-39.859-29.778-26.856-58.542
		c-25.252,12.488-54.798-3.224-58.475-26.903c-61.025,110.268-178.269,73.703-187.584-0.908
		c-24.537,31.562-72.832,14.636-76.782-29.407c-1.812-16.695,2.689-33.99,12.476-47.647
		c-95.099,54.209-164.51-35.768-128.549-95.345C1972.824,69.923,1985.367,60.177,1999.799,58.909 M2131.91,158.18
		c-32.996,15.144-48.501,50.892-37.146,79.204c8.476,21.1,29.435,26.876,43.413,20.867c13.801-5.391,19.476-22.869,13.872-33.446
		c-4.85-10.032-19.805-14.273-26.646-4.28c10.585,6.628,2.724,19.463-6.071,17.254c-5.291-1.339-8.94-6.846-8.55-12.204
		c2.463-26.405,40.571-28.237,50.628-5.697l0.226-0.103c0.628-4.029,7.447-17.496,19.682-25.111
		c41.137-25.7,81.37,19.743,61.272,50.51c-11.499,17.651-35.085,16.264-47.333,2.997c-8.142-8.51-7.368-19.136-0.913-22.689
		c11.891-7.486,21.953,10.571,11.367,17.028c9.28,11.305,27.714,3.123,29.92-11.737c2.669-17.473-13.216-36.164-35.771-31.67
		c-22.308,4.161-33.647,26.925-31.352,49.535c7.223,77.08,158.771,130.722,202.801-98.347
		C2160.99,150.479,2154.896,147.666,2131.91,158.18 M2390.132,150.282c12.218,6.911,19.048,12.449,33.672,29.956
		c9.718,11.678,29.86,12.364,37.675,0.96c5.925-8.291,4.221-20.989-5.415-23.859c-5.75,15.106-23.645,3.888-16.535-7.031
		C2423.06,150.302,2406.596,150.358,2390.132,150.282 M2362.824,218.636c11.596-5.948,29.387-1.377,36.371,10.829
		c6.305,10.321,2.182,27.919-9.956,26.743c-11.173-0.791-11.217-18.054,0.616-18.291c-7.107-26.856-47.285-3.412-30.736,24.532
		c10.758,17.842,39.446,20.386,56.561-2.238c13.59-17.86,15.917-43.289,4.27-66.225c-8.329-16.49-22.648-29.818-39.609-37.095
		C2375.942,177.846,2370.389,198.59,2362.824,218.636 M2503.968,226.401c-10.026,9.084-8.516,27.809,3.218,37.234
		c11.46,9.356,22.653,19.774,29.243,33.261c-0.103-16.577-0.057-33.148-0.021-49.725c-13.06,7.299-20.679-13.06-6.969-16.551
		C2526.007,220.163,2511.807,219.303,2503.968,226.401 M2444.599,261.915c-18.701,5.476-34.171,20.247-34.483,39.096
		c0.382,24.668,23.536,37.044,40.924,26.333c12.294-7.481,12.544-26.88-2.273-30.505c-0.355,12.257-18.139,11.555-18.255,0.098
		c-0.677-11.564,16.015-15.472,26.292-9.607c12.537,6.891,17.206,24.754,11.265,36.556c20.026-7.57,40.749-13.2,61.693-17.567
		C2515.772,273.204,2478.65,251.485,2444.599,261.915 M2375.326,463.233c16.384,61.148,92.916,71.304,109.709,31.598
		c17.784-39.045-36.84-60.231-45.45-29.053c-1.776,5.409,0.154,11.701,4.629,15.217c4.145-6.557,14.176-5.488,17.521,1.211
		c5.016,9.749-6.913,21.405-20.724,11.378c-13.927-10.31-17.46-32.336-4.537-45.296c15.323-15.631,42.418-10.351,55.309,7.868
		c15.064,20.999,7.441,56.413-23.51,68.699c-0.359,0.077-1.36,0.575-0.436,0.821c14.684,8.145,18.275,26.371,11.27,38.64
		c-6.411,11.71-24.463,16.603-29.689,4.552c-4.16-10.306,10.99-18.481,16.808-7.544c3.372-2.325,5.671-6.205,5.625-10.357
		c0.61-28.502-49.896-23.263-45.435,12.851c7.354,46.024,86.534,43.269,105.301-17.244c6.413-20.653,4.443-21.098,4.696-231.181
		C2448.625,332.077,2352.587,377.546,2375.326,463.233z"/>
	<path opacity="0.85" enable-background="new    " d="M159.318,93.926c9.776-9.921,23.055-16.756,28.386-18.173
		c48.26,90.582-7.693,152.35-102.678,102.627c3.89-10.557,10.1-20.256,17.983-28.273c-11.522-35.616-10.844-65.659-7.755-65.517
		C116.957,83.241,138.83,86.777,159.318,93.926 M167.083,103.436c-7.175,8.499-11.209,19.502-11.532,30.587
		c13.261,1.586,26.179,6.338,37.203,13.903c1.967-17.83,0.43-35.197-9.838-57.398C176.839,93.674,171.537,98.262,167.083,103.436
		 M103.516,96.707c0.2,15.879,3.603,31.532,8.16,46.682c8.971-6.117,19.748-9.51,30.562-10.054
		c1.062-10.839,3.947-21.791,10.305-30.788C142.068,99.201,102.546,89.771,103.516,96.707 M122.849,151.195
		c-9.828,4.629-17.824,12.604-23.331,21.894c21.632,10.66,39.037,12.362,57.623,10.557c-7.513-11.132-12.379-24.075-13.862-37.429
		C136.218,146.432,129.254,148.254,122.849,151.195 M156.752,147.515c2.104,11.922,6.995,23.249,13.739,33.277
		c9.207-2.556,16.844-10.192,19.594-19.328C180.195,154.439,168.684,149.681,156.752,147.515z"/>
	<path opacity="0.85" enable-background="new    " d="M2507.966,76.338c0.86-2.176,18.734,7.483,28.642,17.583
		c20.493-7.129,42.356-10.685,64.059-9.335c3.981-0.065,2.602,34.725-7.724,65.506c3.064,3.479,11.279,11.125,18.024,28.191
		C2516.423,228.638,2459.773,165.568,2507.966,76.338 M2505.821,110.189c-3.351,12.25-4.28,25.163-2.576,37.762
		c10.952-7.652,23.921-12.312,37.152-13.929c-0.559-18.888-11.421-34.97-27.344-43.515
		C2510.208,96.892,2507.524,103.394,2505.821,110.189 M2543.408,102.543c6.354,9.007,9.228,19.954,10.305,30.798
		c10.813,0.534,21.591,3.936,30.557,10.049c2.498-8.345,13.296-50.486,5.733-49.053
		C2574.155,94.562,2558.517,97.939,2543.408,102.543 M2552.667,146.217c-1.488,13.349-6.343,26.302-13.862,37.423
		c19.496,2.105,38.692-0.787,57.649-10.629C2585.343,155.228,2569.955,146.864,2552.667,146.217 M2506.113,162.193
		c2.879,8.812,10.393,16.099,19.333,18.604c6.754-10.023,11.64-21.36,13.749-33.282
		C2523.296,150.317,2504.852,160.258,2506.113,162.193z"/>
	<path opacity="0.85" enable-background="new    " d="M210.352,113.459c2.427-0.251,436.986-0.113,437.996-0.113
		c2.474,5.24,6.005,10.059,10.675,13.549c-3.006,1.967-446.248,0.056-446.248,0.056C212.081,122.44,211.547,117.877,210.352,113.459
		z"/>
	<path opacity="0.85" enable-background="new    " d="M747.587,113.351c11.975-0.371,1120.872-0.118,1200.772-0.021
		c-0.051,5.065,0.195,10.121,0.919,15.145c0,0-1186.271,0.089-1202.548,0.062C747.356,123.497,747.633,118.432,747.587,113.351z"/>
	<path opacity="0.85" enable-background="new    " d="M2047.589,113.346c1.009,0,435.678-0.145,438.006,0.123
		c-1.267,4.552-1.709,9.279-2.54,13.923l-1.047-1.221c0.139,0.364,0.406,1.088,0.539,1.452c-1.001,0.001-444.21,0.483-445.53-0.744
		C2041.584,123.317,2045.156,118.591,2047.589,113.346z"/>
	<path opacity="0.85" enable-background="new    " d="M713.068,113.341c2.987-0.031,5.974-0.056,8.961,0.031
		c0.277,5.081-0.128,10.198-1.288,15.155c-6.569-0.026-13.138,0.087-19.707-0.062C706.294,124.59,710.713,119.494,713.068,113.341z"
		/>
	<path opacity="0.85" enable-background="new    " d="M1973.871,113.402c2.997-0.149,6.005-0.082,9.017-0.056
		c2.351,6.153,6.759,11.286,12.055,15.114c-6.579,0.164-13.159,0.031-19.733,0.067
		C1974.005,123.584,1973.697,118.478,1973.871,113.402z"/>
	<path opacity="0.85" enable-background="new    " d="M212.456,127.397c1.734,0.867,446.174,0.649,447.603,0.323
		c0.277,0.257,0.559,0.513,0.852,0.775C658.607,128.497,212.539,129.179,212.456,127.397z"/>
	<path opacity="0.85" enable-background="new    " d="M2035.051,128.506c0.354-0.38,0.734-0.749,1.139-1.119
		c1.729,0.853,445.843,0.885,447.264,0.005C2483.421,129.07,2515.729,128.738,2035.051,128.506z"/>
	<path opacity="0.85" enable-background="new    " d="M745.072,136.435c48.021-0.036,96.048-0.005,144.069-0.015
		c0.051,2.607,0.005,5.214,0.021,7.821c-48.791-0.021-97.582,0.087-146.373-0.056C743.538,141.598,744.533,139.083,745.072,136.435z
		"/>
	<path opacity="0.85" enable-background="new    " d="M1806.821,136.409c48.021,0.036,96.037-0.021,144.059,0.031
		c0.529,2.653,1.519,5.173,2.284,7.765c-48.791,0.098-97.587,0.036-146.378,0.031
		C1806.795,141.629,1806.728,139.017,1806.821,136.409z"/>
	<path opacity="0.85" enable-background="new    " d="M898.697,137.071c4.752-0.452,9.571-0.421,14.334-0.036
		c-0.036,1.535-0.056,3.069-0.077,4.604c-0.529,0.488-1.052,0.975-1.56,1.463c-11.604,0.113-10.063,0.124-11.989-0.636
		C898.507,140.797,898.723,138.888,898.697,137.071z"/>
	<path opacity="0.85" enable-background="new    " d="M922.68,137.005c4.48-0.37,9.017-0.313,13.508-0.015
		c-0.051,1.54-0.067,3.074-0.062,4.614c-0.57,0.37-1.139,0.739-1.683,1.114c-3.351-0.026-6.697-0.072-10.044,0.031
		c-0.529-0.441-1.057-0.872-1.519-1.36C922.577,139.951,922.757,138.462,922.68,137.005z"/>
	<path opacity="0.85" enable-background="new    " d="M945.836,137.01c4.331-0.39,8.704-0.241,13.051-0.128
		c-0.18,1.334-0.087,2.746-0.667,3.988c0.108-0.072,0.323-0.221,0.431-0.293c0.067-1.083,0.149-2.166,0.236-3.249
		c1.663,0.246,0.508,2.453,0.79,3.608c-0.159,0.267-0.477,0.801-0.636,1.062c-0.257,0.18-0.77,0.529-1.032,0.703
		c-13.638-0.128-9.175,0.476-12.096-1.211C945.892,139.997,945.851,138.503,945.836,137.01z"/>
	<path opacity="0.85" enable-background="new    " d="M969.407,136.984c4.48-0.313,9.002-0.298,13.492-0.015
		c-0.031,1.535-0.062,3.069-0.072,4.604c-0.426,0.364-0.842,0.729-1.247,1.103c-3.613,0.026-7.231,0.031-10.839-0.005
		c-0.431-0.375-0.857-0.749-1.268-1.119C969.459,140.028,969.433,138.503,969.407,136.984z"/>
	<path opacity="0.85" enable-background="new    " d="M992.163,137.143c2.784-0.517,11.32-0.53,14.734-0.056
		c-0.036,1.463-0.051,2.93-0.087,4.393c-0.534,0.523-1.057,1.057-1.56,1.596c-10.742,0.319-11.044-0.024-12.456-0.652
		C992.328,140.7,992.025,138.934,992.163,137.143z"/>
	<path opacity="0.85" enable-background="new    " d="M1015.725,137.097c4.742-0.513,9.566-0.426,14.324-0.062
		c-0.036,1.545-0.062,3.095-0.077,4.645c-0.539,0.472-1.073,0.944-1.586,1.422c-3.803,0.01-7.606,0.072-11.404-0.041
		c-0.323-0.847-0.729-1.653-1.201-2.412C1015.735,139.463,1015.735,138.277,1015.725,137.097z"/>
	<path opacity="0.85" enable-background="new    " d="M1039.281,137.046c4.752-0.4,9.577-0.426,14.334,0.021
		c-0.057,1.817,0.2,3.741-0.703,5.404c-2.038,0.761-0.63,0.743-11.999,0.631c-0.529-0.503-1.047-0.996-1.555-1.493
		C1039.328,140.084,1039.307,138.565,1039.281,137.046z"/>
	<path opacity="0.85" enable-background="new    " d="M1062.879,137.112c2.2-0.488,11.68-0.47,13.857-0.005
		c-0.026,1.298-0.031,2.602,0.036,3.9c-0.508,0.636-1.062,1.221-1.668,1.745c-3.531-0.103-7.062-0.098-10.588-0.005
		c-0.626-0.513-1.186-1.098-1.668-1.735C1062.899,139.714,1062.889,138.411,1062.879,137.112z"/>
	<path opacity="0.85" enable-background="new    " d="M1086.43,136.989c4.475-0.328,8.997-0.298,13.482-0.021
		c-0.031,1.535-0.057,3.069-0.062,4.604c-0.436,0.37-0.862,0.739-1.278,1.114c-12.814,0-10.128,0.439-12.137-1.524
		C1086.471,139.771,1086.461,138.38,1086.43,136.989z"/>
	<path opacity="0.85" enable-background="new    " d="M1109.576,137.036c4.758-0.38,9.582-0.426,14.339,0.041
		c-0.036,1.463-0.056,2.925-0.082,4.388c-0.529,0.534-1.037,1.073-1.535,1.617c-11.241,0.276-10.656-0.039-12.579-0.642
		C1109.617,140.638,1109.597,138.837,1109.576,137.036z"/>
	<path opacity="0.85" enable-background="new    " d="M1132.732,137.087c2.893-0.441,11.307-0.506,14.734,0.062
		c0.062,1.688-0.036,3.392-0.616,4.988c-1.5,0.902-0.491,1.341-12.435,0.929c-0.544-0.508-1.073-1.006-1.601-1.504
		C1132.763,140.069,1132.747,138.575,1132.732,137.087z"/>
	<path opacity="0.85" enable-background="new    " d="M1156.299,137.046c4.757-0.405,9.582-0.416,14.344,0.015
		c-0.046,1.54-0.072,3.084-0.062,4.624c-2.662,1.578,0.588,1.571-12.656,1.406c-0.529-0.493-1.047-0.99-1.55-1.483
		C1156.345,140.089,1156.324,138.57,1156.299,137.046z"/>
	<path opacity="0.85" enable-background="new    " d="M1179.45,137.097c4.886-0.482,9.859-0.488,14.755-0.005
		c-0.062,1.406,0.036,2.823-0.108,4.224c-0.441,0.647-1.006,1.186-1.504,1.765C1178.286,143.303,1179.995,143.835,1179.45,137.097z"
		/>
	<path opacity="0.85" enable-background="new    " d="M1203.022,137.077c4.752-0.462,9.577-0.431,14.339-0.031
		c-0.041,1.519-0.062,3.043-0.077,4.568c-0.529,0.498-1.052,0.991-1.555,1.483C1202.001,143.253,1203.129,143.63,1203.022,137.077z"
		/>
	<path opacity="0.85" enable-background="new    " d="M1226.578,137.102c4.609-0.559,9.305-0.38,13.934-0.108
		c-0.031,1.493-0.067,2.987-0.093,4.48c-0.405,0.39-0.796,0.785-1.175,1.175c-3.834,0.072-7.672,0.067-11.501,0
		C1226.753,140.967,1226.481,139.032,1226.578,137.102z"/>
	<path opacity="0.85" enable-background="new    " d="M1249.745,137.092c4.891-0.472,9.869-0.498,14.76,0.021
		c-0.041,1.237,0.01,2.479-0.092,3.716c-0.349,0.842-0.99,1.519-1.493,2.263c-3.865,0.041-7.734,0.056-11.594-0.01
		c-0.513-0.565-1.083-1.088-1.473-1.735C1249.698,139.93,1249.785,138.508,1249.745,137.092z"/>
	<path opacity="0.85" enable-background="new    " d="M1273.747,136.974c4.475-0.293,8.996-0.298,13.477,0
		c-0.031,1.519-0.056,3.033-0.067,4.547c-0.406,0.38-0.801,0.76-1.175,1.144c-3.669,0.051-7.339,0.026-10.998,0.015
		c-0.411-0.37-0.801-0.729-1.18-1.093C1273.783,140.048,1273.763,138.508,1273.747,136.974z"/>
	<path opacity="0.85" enable-background="new    " d="M1296.467,137.107c4.747-0.529,9.572-0.421,14.339-0.103
		c-0.041,1.493-0.062,2.987-0.072,4.485c-0.57,0.405-1.124,0.811-1.658,1.221c-3.521-0.021-7.036-0.062-10.547,0.026
		c-0.58-0.713-1.273-1.319-2.032-1.796C1296.493,139.663,1296.493,138.385,1296.467,137.107z"/>
	<path opacity="0.85" enable-background="new    " d="M1320.46,136.989c4.485-0.282,9.027-0.385,13.513,0.036
		c-0.067,1.339-0.026,2.679-0.098,4.018c-0.298,0.76-1.093,1.15-1.632,1.704c-3.356-0.113-6.713-0.056-10.059-0.031
		c-0.57-0.39-1.119-0.78-1.663-1.165C1320.506,140.033,1320.485,138.508,1320.46,136.989z"/>
	<path opacity="0.85" enable-background="new    " d="M1344.016,137.041c4.47-0.457,9.017-0.323,13.508-0.056
		c-0.046,1.524-0.062,3.048-0.051,4.573c-0.575,0.385-1.139,0.775-1.673,1.165c-3.356-0.031-6.708-0.087-10.049,0.031
		C1343.749,140.638,1344.172,142.712,1344.016,137.041z"/>
	<path opacity="0.85" enable-background="new    " d="M1367.183,137.01c18.034-1.607,13.171,0.883,13.893,3.972
		c-0.529,0.611-1.068,1.206-1.616,1.771c-3.521-0.123-7.041-0.041-10.557-0.051c-0.57-0.405-1.114-0.816-1.647-1.221
		C1367.229,139.986,1367.203,138.498,1367.183,137.01z"/>
	<path opacity="0.85" enable-background="new    " d="M1390.739,137.025c4.48-0.37,9.038-0.4,13.523,0.01
		c-0.144,1.807,0.411,3.952-1.165,5.271c-3.751-0.072-7.503-0.062-11.245-0.005C1390.534,140.828,1390.76,138.842,1390.739,137.025z
		"/>
	<path opacity="0.85" enable-background="new    " d="M1413.906,137.025c4.604-0.318,9.294-0.488,13.888,0.072
		c-0.082,1.909,0.472,4.178-1.222,5.563c-3.88,0.051-7.76,0.062-11.629-0.01c-0.339-0.328-0.657-0.652-0.965-0.975
		C1413.952,140.125,1413.926,138.575,1413.906,137.025z"/>
	<path opacity="0.85" enable-background="new    " d="M1438.411,136.825c4.157-0.031,8.319-0.128,12.481,0.072
		c-0.057,2.022,0.765,4.876-1.694,5.779c-3.356,0.092-6.713-0.082-10.059,0.077c-0.6-0.523-1.155-1.083-1.668-1.668
		c0.38-1.221-0.852-3.577,0.955-3.798c0.046,1.201,0.077,2.397,0.139,3.598C1438.596,139.53,1438.524,138.17,1438.411,136.825z"/>
	<path opacity="0.85" enable-background="new    " d="M1460.623,137.051c4.752-0.411,9.582-0.426,14.344,0.021
		c-0.046,1.54-0.067,3.079-0.062,4.624c-2.869,1.651,0.628,1.489-12.677,1.406c-0.528-0.513-1.036-1.021-1.529-1.535
		C1460.669,140.063,1460.649,138.555,1460.623,137.051z"/>
	<path opacity="0.85" enable-background="new    " d="M1484.313,137.22c1.493-0.732,11.767-0.491,13.759-0.128
		c0,1.273-0.021,2.546-0.015,3.818c-0.164,0.272-0.493,0.821-0.657,1.098c-0.257,0.174-0.76,0.529-1.011,0.703
		c-3.515-0.01-7.021-0.082-10.521,0.041c-0.611-0.534-1.17-1.103-1.678-1.704C1484.216,139.771,1484.169,138.488,1484.313,137.22z"
		/>
	<path opacity="0.85" enable-background="new    " d="M1507.351,137.066c4.752-0.441,9.577-0.421,14.339-0.021
		c-0.041,1.535-0.067,3.064-0.082,4.598c-0.529,0.482-1.047,0.965-1.545,1.452c-13.358,0.124-9.95,0.227-12.661-1.493
		C1507.397,140.089,1507.377,138.575,1507.351,137.066z"/>
	<path opacity="0.85" enable-background="new    " d="M1530.938,136.907c0.241,0.062,0.734,0.185,0.975,0.246
		c-0.026,1.504,0,3.002,0.046,4.501c3.854,0.056,7.714,0.149,11.568-0.026c-13.316,0-11.463,1.354-11.568-4.804
		c4.429,0.031,8.889-0.293,13.302,0.257c-0.036,1.488-0.067,2.982-0.077,4.475c-0.58,0.518-1.093,1.124-1.755,1.504
		c-1.002,0.055-9.585,0.416-12.353-0.626C1530.949,140.592,1530.938,138.75,1530.938,136.907z"/>
	<path opacity="0.85" enable-background="new    " d="M1554.49,137.005c4.485-0.303,9.043-0.411,13.523,0.036
		c-0.309,5.692,0.524,3.318-1.74,5.712c-3.469-0.159-6.944,0.031-10.408-0.118c-0.436-0.39-0.862-0.78-1.273-1.165
		C1554.536,139.981,1554.5,138.493,1554.49,137.005z"/>
	<path opacity="0.85" enable-background="new    " d="M1577.646,137.051c4.752-0.416,9.576-0.421,14.339,0.01
		c-0.051,1.519-0.067,3.033-0.056,4.552c-0.672,0.493-1.324,0.991-1.955,1.499c-3.572,0-7.144,0.031-10.706-0.021
		c-0.534-0.498-1.047-0.99-1.545-1.483C1577.682,140.089,1577.661,138.57,1577.646,137.051z"/>
	<path opacity="0.85" enable-background="new    " d="M1601.325,137.225c1.496-0.827,12.051-0.416,13.811-0.21
		c-0.041,1.488-0.067,2.982-0.082,4.47c-0.564,0.405-1.124,0.816-1.653,1.221c-3.485-0.026-6.964-0.026-10.433,0
		c-0.262-0.174-0.775-0.523-1.037-0.698c-0.164-0.257-0.493-0.78-0.662-1.042C1601.238,139.72,1601.172,138.467,1601.325,137.225z"
		/>
	<path opacity="0.85" enable-background="new    " d="M1624.374,137.071c4.752-0.452,9.577-0.426,14.334-0.026
		c-0.041,1.524-0.067,3.048-0.082,4.573c-0.539,0.493-1.068,0.985-1.57,1.478c-3.516,0.015-7.026,0.067-10.531-0.026
		c-0.493-0.226-0.975-0.441-1.442-0.642C1624.143,140.792,1624.415,138.873,1624.374,137.071z"/>
	<path opacity="0.85" enable-background="new    " d="M1647.94,137.107c4.598-0.565,9.289-0.39,13.913-0.108
		c-0.041,1.365-0.062,2.735-0.041,4.106c-0.421,0.523-0.826,1.047-1.211,1.57c-3.828,0.015-7.657,0.056-11.475-0.026
		C1647.92,141.023,1647.838,139.047,1647.94,137.107z"/>
	<path opacity="0.85" enable-background="new    " d="M1671.543,137.071c1.856-0.304,12.339-0.627,13.723,0.169
		c0.2,1.073,0.113,2.181,0.18,3.269c-0.503,0.795-1.057,1.545-1.673,2.232c-3.5-0.139-7,0.036-10.49-0.082
		C1670.871,141.86,1671.625,139.006,1671.543,137.071z"/>
	<path opacity="0.85" enable-background="new    " d="M1695.089,136.974c4.475-0.298,8.996-0.293,13.482,0
		c-0.036,1.519-0.062,3.033-0.062,4.552c-0.416,0.38-0.806,0.765-1.18,1.15c-13.243,0.059-10.276,0.232-12.199-1.067
		C1695.141,140.063,1695.105,138.519,1695.089,136.974z"/>
	<path opacity="0.85" enable-background="new    " d="M1717.814,137.107c4.747-0.534,9.566-0.411,14.334-0.108
		c-0.041,1.504-0.062,3.002-0.077,4.506c-0.564,0.4-1.119,0.801-1.642,1.206c-3.623-0.072-7.236,0.062-10.849-0.082
		c-0.493-0.657-0.98-1.365-1.73-1.709C1717.835,139.648,1717.83,138.38,1717.814,137.107z"/>
	<path opacity="0.85" enable-background="new    " d="M1741.812,136.994c4.45-0.37,8.935-0.226,13.4-0.098
		c-0.031,1.499,0.267,3.054-0.128,4.521c-0.488,0.477-1.011,0.898-1.499,1.334c-13.653-0.674-8.687,0.979-11.758-1.57
		C1741.848,139.786,1741.833,138.39,1741.812,136.994z"/>
	<path opacity="0.85" enable-background="new    " d="M1765.466,136.902c4.46-0.139,8.95-0.272,13.41,0.092
		c-0.046,1.529-0.082,3.064-0.051,4.598c-1.709,1.884-3.992,0.769-11.727,1.165c-0.534-0.436-1.057-0.867-1.499-1.35
		C1765.173,139.951,1765.481,138.396,1765.466,136.902z"/>
	<path opacity="0.85" enable-background="new    " d="M1788.53,137.01c4.321-0.39,8.678-0.231,13.02-0.139
		c-0.174,1.339-0.231,2.689-0.164,4.039c0.051-1.175,0.092-2.351,0.159-3.526c0.231,0.046,0.693,0.144,0.929,0.195
		c0.01,1.868,0.128,4.039-1.673,5.173c-3.516-0.118-7.031-0.051-10.536-0.041c-0.575-0.411-1.124-0.821-1.652-1.227
		C1788.571,139.992,1788.54,138.498,1788.53,137.01z"/>
	<path opacity="0.85" enable-background="new    " d="M122.71,201.1c4.952,1.119,9.982,2.135,15.053,2.515
		c0.028,36.942,0.109,425.756-0.046,448.142c-2.899-3.4-5.795-8.129-15.129-12.62C122.587,638.136,122.434,202.892,122.71,201.1z"/>
	<path opacity="0.85" enable-background="new    " d="M2558.199,203.604c5.06-0.359,10.079-1.396,15.032-2.504
		c0.287,4.601,0.129,437.035,0.128,438.037c-9.678,4.562-12.968,10.221-15.145,12.605
		C2558.139,625.532,2558.101,228.889,2558.199,203.604z"/>
	<path opacity="0.85" enable-background="new    " d="M137.722,691.684c0.164,6.595,0.056,13.2,0.046,19.805
		c-4.942,1.227-10.054,1.514-15.129,1.36c-0.118-2.987-0.092-5.979-0.051-8.961C132.504,699.832,135.842,693.818,137.722,691.684z"
		/>
	<path opacity="0.85" enable-background="new    " d="M2558.219,691.669c3.777,5.389,8.94,9.843,15.135,12.209
		c0.046,2.987,0.062,5.979-0.046,8.966c-5.076,0.169-10.187-0.138-15.119-1.35C2558.153,704.884,2558.065,698.274,2558.219,691.669z
		"/>
	<path opacity="0.85" enable-background="new    " d="M151.82,734.163c0.503-0.334,1.129-0.334,1.704-0.426
		c0.305,133.363-0.021,182.555-0.021,182.555c-2.643-0.549-5.127-1.678-7.801-2.109c-0.188-17.316-0.419-117.151-0.026-178.346
		C147.745,735.359,149.798,734.804,151.82,734.163z"/>
	<path opacity="0.85" enable-background="new    " d="M2542.423,733.778c0.492,0.036,1.021,0.077,1.591,0.133
		c0.026,0.097,0.082,0.282,0.113,0.375c2.058,0.385,4.034,1.155,6.123,1.514c0.034,11.771,0.051,178.269,0.051,178.269
		c-2.658,0.631-5.209,1.606-7.852,2.232C2542.302,760.649,2542.423,733.778,2542.423,733.778z"/>
	<path opacity="0.85" enable-background="new    " d="M122.556,738.34c5.076-0.005,10.151-0.098,15.176-0.934
		c0.131,40.562,0.146,171.775-0.031,175.2c-4.973-0.836-10.023-1.078-15.063-0.888C122.188,890.974,122.564,752.846,122.556,738.34z
		"/>
	<path opacity="0.85" enable-background="new    " d="M2558.214,737.411c5.019,0.821,10.09,0.934,15.17,0.924
		c0.114,20.109,0.288,153.319-0.082,173.389c-5.04-0.19-10.079,0.036-15.047,0.888
		C2558.064,896.571,2558.092,765.351,2558.214,737.411z"/>
	<path opacity="0.85" enable-background="new    " d="M86.354,932.155c60.831-45.912,158.156,34.236,99.886,125.326
		c40.023-28.127,95.436-8.173,93.497,34.416c-0.354,11.563-6.251,22.874-15.792,29.494c1.427,0.609,33.061,3.948,54.662,34.991
		c25.013,36.251,28.656,106.62-53.969,152.829c22.731,3.355,39.756,32.398,26.862,58.552c25.19-12.696,54.824,3.279,58.516,26.887
		c60.172-113.056,182.059-70.392,187.548,0.893c18.013-23.37,49.147-19.426,64.814-0.498c15.99,19.362,17.186,52.474-0.508,77.639
		c65.129-38.772,119.553-5.501,133.558,35.771c11.429,31.764-0.697,66.249-25.147,78.496c-16.806,8.842-41.8,4.167-52.44-13.369
		c-9.516-15.212-6.638-37.935,9.469-46.651c21.203-12.192,46.745,8.142,38.388,27.667c-2.274,5.384-9.792,7.739-14.58,4.265
		c-4.469-2.936-6.853-12.221,3.439-16.253c-3.477-10.873-19.367-11.771-27.103-2.191c-10.195,12.923-3.84,37.29,18.589,40.544
		c54.974,7.312,66.278-99.552-15.448-115.18c-26.966-5.19-48.564,3.748-71.372,19.03c10.192,3.043,19.322,10.67,22.679,20.954
		c30.972-0.097,61.95,0.062,92.922-0.077c1.586,2.391,2.556,5.122,3.731,7.739c-1.006,0.024-106.439,0.807-106.168-0.698
		c-1.093-13.858-17.888-22.041-32.317-18.209c-57.45,16.252,56.397,14.167-366.885,14.026c-0.139-2.982-0.575-5.922-0.908-8.868
		c5.799,0.036,11.604-0.077,17.403,0.072c-22.62-18.425-2.247-59.482,33.718-47.719c-7.042-18.782-6.896-39.632,3.202-59.358
		c-19.375,9.838-38.854,10.286-59.379,3.136c11.762,35.68-28.529,56.042-47.708,33.749c0.118,5.789,0.015,11.583,0.056,17.383
		c-2.941-0.457-5.912-0.657-8.873-0.852c-0.151-333.58-3.409-334.011,11.239-360.275c9.221-15.874,0.124-38.357-16.243-39.086
		c-0.002-3.564-0.084-102.811,0.113-106.04c2.633,0.924,5.127,2.191,7.601,3.48c0.21,31.044,0.067,62.104,0.072,93.158
		c10.198,3.326,18.075,12.307,20.78,22.586c36.405-51.746,18.008-95.258-6.574-115.447c-32.212-26.615-78.602-15.742-88.365,13.513
		c-10.646,36.989,34.292,50.102,44.29,27.426c3.846-7.31,1.644-17.883-7.041-20.831c-6.845,16.971-25.454,1.298-14.96-8.981
		c6.41-6.329,22.319-4.667,29.889,7.652c11.718,18.136-1.009,43.1-24.999,43.531C69.741,1008.758,51.623,958.48,86.354,932.155
		 M195.525,1063.347c-28.095,16.976-35.791,44.364-35.951,75.729c-0.036,65.183,0.031,130.366-0.036,195.554
		c229.666-44.615,175.073-196.812,97.367-202.934c-23.491-1.881-40.872,9.98-46.492,24.629
		c-10.389,24.609,10.183,46.968,31.034,42.268c13.312-2.718,21.379-20.576,10.3-29.612c-4.259,6.447-13.557,5.392-17.121-0.472
		c-3.187-5.05-0.929-12.538,4.552-14.94c15.325-6.078,34.834,17.814,26.312,38.871c-13.314,34.928-74.789,17.702-68.406-28.694
		c3.719-29.846,30.482-38.153,31.444-39.153c-13.54-7.865-17.44-22.083-13.975-33.564c4.021-14.013,18.686-19.244,25.825-16.002
		c16.976,7.703-1.676,28.614-10.67,13.651c-17.629,12.702,8.391,43.27,31.645,21.545c18.847-17.485,5.51-56.105-33.749-55.694
		C216.356,1054.315,205.137,1057.548,195.525,1063.347 M239.502,1327.528c-6.298,8.228-4.686,22.979,7.606,25.578
		c1.257-11.026,14.415-11.636,17.629-3.218c5.095,11.783-12.645,19.828-25.25,12.959c-13.911-7.492-17.031-26.339-11.583-36.731
		c-20.056,7.539-40.785,13.154-61.734,17.572c17.495,41.396,68.052,60.898,102.35,36.007c30.526-21.582,16.244-61.6-10.105-60.708
		C251.28,1318.788,243.9,1321.791,239.502,1327.528 M395.56,1354.272c-40.978,31.26-61.269,95.02-70.926,145.449
		c209.68-0.303,210.33,1.767,231.13-4.716c27.236-8.616,49.803-34.123,49.022-64.372c-2.034-53.884-64.707-50.671-62.93-13.903
		c0.132,16.221,19.779,24.839,28.699,12.784c-10.725-7.19-2.571-19.041,5.727-17.388c5.599,1.215,13.407,8.596,5.414,22.54
		c-9.992,16.093-37.247,14.749-47.169-4.172c-3.505,8.873-9.197,16.997-16.869,22.751c-40.141,29.818-85.349-15.521-64.305-48.422
		c11.749-18.551,38.571-16.459,50.059,0.39c10.604,16.081-6.55,26.138-14.39,18.039c-4.475-4.172-4.229-12.517,1.237-15.735
		c-7.702-10.087-24.133-4.755-28.709,7.108c-6.712,17.524,9.312,41.042,33.893,36.366c47.094-7.902,43.692-90.577-18.204-110.972
		C449.873,1330.931,418.362,1336.797,395.56,1354.272 M159.528,1353.091c0.062,16.577,0.051,33.159,0.01,49.74
		c12.262-7.384,21.121,12.377,6.949,16.561c3.149,8.679,12.708,10.451,20.292,7.442c14.661-5.719,16.046-28.883,2.284-40.236
		C177.516,1377.151,166.164,1366.707,159.528,1353.091 M294.647,1377.438c-39.851,20.848-34.933,91.716,21.006,115.678
		c4.301-20.985,9.915-41.74,17.506-61.791c-10.09,5.307-28.94,2.575-36.607-11.157c-6.064-10.498-1.768-27.522,10.131-26.389
		c11.092,0.752,11.362,17.924-0.616,18.311c4.553,16.974,29.865,14.738,33.774-6.107
		C344.345,1382.648,318.734,1365.425,294.647,1377.438 M239.872,1492.675c3.507-14.199,23.904-5.472,16.541,7.036
		c16.469-0.036,32.948-0.077,49.422,0.026c-35.77-22.709-30.836-36.932-51.034-38.963
		C229.524,1457.932,224.121,1487.738,239.872,1492.675z"/>
	<path opacity="0.85" enable-background="new    " d="M2548.612,922.594c59.976-18.38,101.626,40.913,67.775,74.087
		c-20.085,19.691-55.832,9.091-56.181-17.203c-0.894-14.524,10.336-28.045,24.598-27.467c12.85,0.391,14.951,12.005,10.1,17.044
		c-3.385,3.861-12.284,4.977-15.427-4.455c-15.379,4.781-11.485,34.857,16.566,31.475c13.423-2.22,22.49-14.546,21.96-28.889
		c0.586-46.486-93.465-58.808-113.897,14.914c-8.302,27.721,1.062,54.059,17.506,77.726c2.936-10.11,10.531-19.23,20.78-22.391
		c0.113-31.044,0.021-62.083,0.046-93.122c2.433-1.463,5.035-2.643,7.708-3.628c0.105,4.125,0.245,103.645-0.021,106.163
		c-13.525,0.201-23.044,17.176-18.763,32.671c16.298,54.727,14.1-47.17,13.888,366.572c-2.977,0.185-5.943,0.421-8.884,0.831
		c0.056-5.779-0.056-11.557,0.062-17.331c-19.194,22.339-59.374,2.04-47.708-33.785c-20.641,7.186-40.032,6.669-59.374-3.125
		c10.052,19.767,10.305,40.517,3.197,59.353c35.978-11.762,56.592,29.221,33.713,47.708c5.825-0.103,11.65-0.082,17.485-0.021
		c-0.539,2.91-0.785,5.866-0.98,8.827c-362.474,0.091-327.751,3.186-363.046-12.661c-16.189-7.133-35.889,2.94-36.177,17.562
		c-2.647,0.056-104.063,0.291-106.122-0.072c1.165-2.602,2.104-5.337,3.736-7.698c30.957,0.159,61.919-0.026,92.881,0.092
		c3.367-10.28,12.481-17.916,22.679-20.954c-63.498-42.634-115.074-9.243-127.082,27.513c-15.892,46.038,22.725,83.396,51.875,64.27
		c12.111-7.583,15.647-25.449,6.749-36.474c-7.926-9.348-23.541-8.185-26.856,2.51c10.16,3.882,7.862,13.018,3.736,16.002
		c-4.444,3.526-11.696,1.771-14.391-3.11c-6.092-10.822,1.818-29.144,19.702-31.804c39.753-5.257,46.654,56.11,4.239,66.369
		c-50.245,11.383-80.053-60.532-39.666-106.671c23.886-27.601,67.423-41.528,119.065-10.721
		c-14.681-21.059-15.445-45.697-9.238-62.232c12.142-34.545,51.36-38.65,69.078-20.169c1.663,1.488,2.802,3.444,4.393,5.014
		c11.093-75.331,126.695-110.414,187.651-0.677c3.55-23.847,34.059-39.565,58.465-26.872c-13.479-30.223,7.507-56.215,26.882-58.563
		c-109.785-61.239-74.563-176.202,0.662-187.625c-45.561-44.155,16.061-103.96,77.68-64.121
		C2470.623,994.953,2502.717,935.922,2548.612,922.594 M2448.746,1058.292c-20.082,8.326-26.396,28.485-20.333,42.889
		c8.849,22.831,44.089,20.849,43.438-2.115c0.026-4.08-2.12-8.145-5.604-10.29c-6.772,9.86-17.53,3.518-17.398-4.09
		c-0.314-5.443,6.314-15.261,21.278-7.862c16.773,8.784,16.837,36.514-1.54,47.062c-0.298,0.308-1.385,0.4-1.047,0.929
		c55.287,22.103,30.408,97.699-17.064,84.957c-19.47-5.121-28.101-26.312-17.48-44.454c9.105-14.82,23.058-15.301,27.77-8.437
		c8.759,11.862-10.123,23.181-16.448,12.127c-2.941,2.109-4.783,5.558-5.271,9.109c-1.906,20.943,27.457,29.665,43.002,10.09
		c10.067-12.648,7.385-32.809-5.034-44.454c-18.311-17.437-50.954-15.852-74.636,2.304
		c-46.537,34.485-63.882,150.189,134.031,188.569c-0.219-212.057,1.614-211.546-4.932-231.992
		C2519.188,1064.477,2478.656,1045.549,2448.746,1058.292 M2421.259,1324.511c-15.104,11.983-15.927,38.688,5.199,54.477
		c33.859,25.694,85.215,7.13,103.33-35.288c-20.954-4.429-41.688-10.049-61.75-17.583c2.756,5.363,2.828,11.681,1.96,17.526
		c-6.229,31.391-44.634,24-39.071,6.959c3.243-10.097,17.774-7.601,17.762,2.479c14.706-2.308,16.014-25.613-1.329-32.312
		C2438.816,1317.418,2428.423,1318.629,2421.259,1324.511 M2229.651,1337.197c-58.557,10.568-77.8,78.302-46.61,105.593
		c15.394,13.211,39.903,11.748,49.453-6.569c13.721-25.142-15.083-43.668-26.805-28.704c7.648,4.79,4.583,16.923-3.669,18.322
		c-9.863,2.094-17.348-9.049-9.31-20.888c10.332-14.737,32.908-18.155,45.727-5.194c15.926,15.494,10.15,42.553-7.914,55.324
		c-19.899,14.322-55.571,9.073-69.114-24.593c-10.191,19.743-39.146,20.062-48.021,2.648c-7.318-14.687,3.219-22.689,9.946-20.877
		c6.346,1.519,11.371,10.805,2.063,17.259c1.786,2.422,4.239,4.475,7.236,5.194c25.488,6.679,31.939-39.103-1.432-44.937
		c-43.56-6.421-60.677,68.118-4.398,99.435c24.042,13.642,29.541,10.143,244.5,10.516
		C2355.209,1415.481,2313.646,1321.771,2229.651,1337.197 M2536.398,1353.117c-9.616,19.674-28.522,31.572-32.799,36.751
		c-8.971,10.736-8.123,27.186,1.262,34.452c7.79,6.23,21.197,5.202,24.593-4.937c-14.135-3.938-5.458-23.907,6.954-16.541
		C2536.357,1386.265,2536.377,1369.689,2536.398,1353.117 M2362.855,1382.647c-12.494,12.484-7.985,35.168,6.667,39.882
		c8.895,2.464,18.672-1.066,20.261-10.541c-3.567,0.01-6.887-2.356-8.252-5.599c-4.077-8.916,8.663-18.107,16.736-8.909
		c3.992,4.12,5.776,15.002,0.934,23.023c-7.041,12.347-24.943,16.666-36.402,10.834c7.57,20.046,13.205,40.79,17.49,61.77
		c65.175-27.778,56.943-114.65,7.945-119.594C2379.021,1372.783,2369.383,1376.032,2362.855,1382.647 M2390.112,1499.752
		c16.474-0.144,32.953-0.067,49.427-0.041c-7.064-14.128,13.66-20.263,16.546-7.031c13.454-4.411,11.302-26.414-4.711-31.06
		C2424.933,1453.916,2423.069,1481.122,2390.112,1499.752z"/>
	<path opacity="0.85" enable-background="new    " d="M2558.153,938.519c4.942-1.237,10.064-1.565,15.15-1.355
		c0.164,2.961,0.036,5.938,0.067,8.914c-6.148,2.453-11.517,6.754-15.094,12.338
		C2558.019,951.785,2558.199,945.149,2558.153,938.519z"/>
	<path opacity="0.85" enable-background="new    " d="M122.608,937.184c5.091-0.236,10.233,0.082,15.186,1.345
		c-0.077,6.62,0.195,13.261-0.174,19.877c-3.51-5.553-8.843-9.89-14.97-12.24C122.5,943.174,122.541,940.176,122.608,937.184z"/>
	<path opacity="0.85" enable-background="new    " d="M137.722,998.318c0.112,17.602,0.111,428.341,0,448.07
		c-5.06,0.37-10.079,1.35-15.011,2.499c-0.246-4.181-0.134-437.021-0.133-438.021C132.901,1005.876,135.6,1000.338,137.722,998.318z
		"/>
	<path opacity="0.85" enable-background="new    " d="M2558.225,998.205c3.921,5.394,9.058,9.884,15.15,12.671
		c0,1.005,0.101,434.795-0.138,438.016c-4.942-1.165-9.972-2.125-15.027-2.515C2558.162,1430.814,2558.069,1006.1,2558.225,998.205z
		"/>
	<path opacity="0.85" enable-background="new    " d="M85.015,1471.638c75.84-39.839,116.89-5.135,119.424,29.925
		c0.077,0.031,0.236,0.097,0.313,0.128c2.943,25.383-5.008,49.963-17.034,72.496c-4.483-1.017-18.262-7.818-28.355-18.127
		c-20.513,7.134-42.396,10.634-64.11,9.33c-4.046-0.217-2.336-36.136,7.857-65.532C95.059,1491.961,89.013,1482.144,85.015,1471.638
		 M132.23,1466.47c-11.378,1.75-22.556,5.158-32.753,10.547c10.062,15.78,24.1,25.913,43.798,26.779
		c1.509-13.359,6.318-26.338,13.893-37.449C148.884,1465.505,140.493,1465.372,132.23,1466.47 M170.46,1469.206
		c-6.718,10.049-11.645,21.365-13.708,33.307c11.604-2.156,22.74-6.749,32.522-13.344
		C191.737,1488.231,184.421,1472.927,170.46,1469.206 M155.576,1515.939c0.41,18.809,11.547,35.158,27.334,43.541
		c8.678-19.285,12.269-35.858,9.926-57.418C181.735,1509.513,168.874,1514.42,155.576,1515.939 M105.482,1555.656
		c16.002-0.164,31.804-3.562,47.056-8.206c-9.56-13.776-9.836-29.115-10.3-30.813c-10.844-0.493-21.55-4.013-30.608-9.997
		C109.219,1514.772,98.802,1556.556,105.482,1555.656z"/>
	<path opacity="0.85" enable-background="new    " d="M2521.407,1459.47c27.318-12.523,62.432-2.536,89.571,12.297
		c-7.182,17.518-14.51,24.047-18.065,28.15c10.24,30.155,11.733,65.414,7.883,65.455c-3.865,0.205-7.734,0.364-11.594,0.37
		c-0.015-0.072-0.051-0.226-0.067-0.303c-15.574,0.559-36.68-3.886-52.538-9.381c-7.683,7.832-17.156,13.754-27.251,17.952
		C2505.678,1576.371,2462.668,1486.081,2521.407,1459.47 M2538.825,1466.383c7.513,11.121,12.358,24.065,13.841,37.413
		c17.999-0.687,34.29-10.475,43.731-26.964C2577.924,1468.15,2561.1,1463.799,2538.825,1466.383 M2520.206,1471.258
		c-6.739,3.644-12.24,9.89-14.339,17.321c9.936,6.964,21.406,11.691,33.328,13.934c-2.068-11.942-6.99-23.269-13.713-33.313
		C2523.614,1469.585,2521.843,1470.319,2520.206,1471.258 M2503.106,1502.067c-1.969,19.004-0.07,35.49,9.961,57.439
		c16.498-9.128,26.728-24.998,27.359-43.525C2527.114,1514.389,2514.227,1509.539,2503.106,1502.067 M2553.698,1516.642
		c-0.466,1.715-0.719,17.03-10.29,30.803c11.901,3.65,49.659,12.447,49.007,6.343c-0.093-15.466-3.809-33.886-8.258-47.169
		C2577.986,1511.345,2565.352,1516.228,2553.698,1516.642z"/>
	<path opacity="0.85" enable-background="new    " d="M900.073,1503.996c4.172,0.077,8.365-0.226,12.528,0.195
		c-0.375,1.668,0.867,4.501-1.257,5.23c-3.741,0.108-7.488-0.01-11.224,0.046C899.985,1507.635,899.944,1505.808,900.073,1503.996z"
		/>
	<path opacity="0.85" enable-background="new    " d="M922.269,1504.243c4.614-0.421,9.279-0.349,13.903-0.062
		c-0.015,1.494-0.051,2.992-0.092,4.506c-0.4,0.365-0.795,0.749-1.175,1.155c-3.972,0.067-7.944,0.092-11.912-0.031
		C922.059,1508.092,922.315,1506.1,922.269,1504.243z"/>
	<path opacity="0.85" enable-background="new    " d="M946.226,1504.155c4.496-0.236,9.033-0.359,13.518,0.098
		c-0.036,1.288-0.046,2.592-0.036,3.905c-0.375,0.416-0.739,0.847-1.098,1.298c-3.88-0.031-7.765,0.067-11.645-0.051
		C946.6,1507.666,946.205,1505.926,946.226,1504.155z"/>
	<path opacity="0.85" enable-background="new    " d="M969.413,1504.181c4.48-0.313,8.997-0.303,13.487-0.005
		c-0.051,1.534-0.062,3.079-0.046,4.634c-0.575,0.359-1.145,0.724-1.694,1.119c-12.202-0.4-8.801,0.715-11.696-1.165
		C969.469,1507.229,969.438,1505.7,969.413,1504.181z"/>
	<path opacity="0.85" enable-background="new    " d="M992.564,1504.227c4.614-0.38,9.284-0.369,13.903-0.021
		c-0.036,1.35-0.051,2.715-0.036,4.085c-0.411,0.508-0.811,1.031-1.196,1.576c-3.808,0.01-7.611,0.072-11.414-0.036
		c-0.416-0.549-0.821-1.083-1.211-1.596C992.6,1506.885,992.584,1505.551,992.564,1504.227z"/>
	<path opacity="0.85" enable-background="new    " d="M1017.08,1504.001c4.172,0.056,8.365-0.2,12.533,0.169
		c-0.443,6.328,2.537,5.267-12.481,5.291C1017.003,1507.635,1016.967,1505.813,1017.08,1504.001z"/>
	<path opacity="0.85" enable-background="new    " d="M1039.707,1504.171c4.624-0.262,9.294-0.37,13.913,0.097
		c-0.041,1.488-0.062,2.992-0.082,4.506c-0.334,0.328-0.652,0.677-0.96,1.047c-3.88,0.128-7.765,0.046-11.645,0.051
		c-0.4-0.385-0.79-0.754-1.17-1.109C1039.759,1507.224,1039.733,1505.69,1039.707,1504.171z"/>
	<path opacity="0.85" enable-background="new    " d="M1062.971,1504.396c1.522-0.673,11.397-0.436,12.979-0.251
		c1.143-0.028,1.488,4.647-0.903,5.784c-3.505-0.062-7.01-0.098-10.51,0.021c-0.611-0.539-1.175-1.109-1.688-1.699
		C1062.879,1506.952,1062.833,1505.664,1062.971,1504.396z"/>
	<path opacity="0.85" enable-background="new    " d="M1086.009,1504.263c4.752-0.436,9.571-0.426,14.334-0.015
		c-0.041,1.514-0.062,3.033-0.077,4.568c-0.529,0.477-1.047,0.97-1.55,1.478c-12.882,0.1-10,0.236-12.661-1.411
		C1086.055,1507.332,1086.035,1505.792,1086.009,1504.263z"/>
	<path opacity="0.85" enable-background="new    " d="M1109.581,1504.232c4.614-0.39,9.284-0.37,13.903-0.026
		c-0.036,1.35-0.051,2.715-0.036,4.085c-0.416,0.508-0.816,1.031-1.201,1.576c-3.977,0.01-7.955,0.082-11.927-0.051
		C1109.299,1508.117,1109.663,1506.09,1109.581,1504.232z"/>
	<path opacity="0.85" enable-background="new    " d="M1133.199,1504.268c4.444-0.498,8.966-0.349,13.436-0.097
		c-0.2,5.783,0.47,3.481-1.735,5.789c-3.367-0.123-6.733-0.123-10.095-0.005c-0.606-0.544-1.165-1.114-1.678-1.699
		C1133.189,1506.916,1133.194,1505.582,1133.199,1504.268z"/>
	<path opacity="0.85" enable-background="new    " d="M1156.853,1504.16c4.434-0.277,8.909-0.287,13.349,0.021
		c-0.041,1.37-0.041,2.761-0.01,4.157c-0.442,0.498-0.867,1.006-1.273,1.545c-12.786,0-9.841,0.298-12.117-1.031
		c-0.026-0.975,0.026-1.976-0.416-2.838C1156.54,1505.382,1156.694,1504.766,1156.853,1504.16z"/>
	<path opacity="0.85" enable-background="new    " d="M1180.764,1504.089c17.56-0.669,11.968,0.388,13.036,4.162
		c-0.544,0.585-1.109,1.15-1.694,1.699c-3.5-0.133-7-0.057-10.495-0.041c-0.251-0.18-0.765-0.539-1.021-0.714
		c-0.164-0.257-0.493-0.775-0.652-1.031c0.267-1.191-0.873-3.392,0.836-3.654c0.067,1.175,0.113,2.366,0.185,3.572
		C1181.03,1506.737,1180.938,1505.392,1180.764,1504.089z"/>
	<path opacity="0.85" enable-background="new    " d="M1203.966,1504.048c4.311-0.016,8.653-0.272,12.959,0.154
		c-0.046,1.36-0.051,2.73,0.021,4.116c-0.801,1.488-2.561,1.124-3.957,1.15c-2.782-0.067-5.558,0.072-8.329-0.051
		C1203.15,1508.163,1204.187,1505.772,1203.966,1504.048z"/>
	<path opacity="0.85" enable-background="new    " d="M1226.604,1504.237c4.614-0.406,9.279-0.354,13.903-0.046
		c-0.031,1.483-0.062,2.982-0.082,4.485c-0.411,0.375-0.801,0.77-1.18,1.18c-3.977,0.015-7.955,0.123-11.922-0.072
		C1226.347,1508.081,1226.665,1506.085,1226.604,1504.237z"/>
	<path opacity="0.85" enable-background="new    " d="M1250.206,1504.299c4.26-0.652,8.596-0.164,12.892-0.308
		c0.123,1.586,0.108,3.187,0.087,4.799c-0.426,0.37-0.842,0.754-1.242,1.155c-3.372-0.092-6.744-0.108-10.11,0.005
		c-0.611-0.544-1.175-1.114-1.683-1.709C1250.206,1506.916,1250.206,1505.602,1250.206,1504.299z"/>
	<path opacity="0.85" enable-background="new    " d="M1273.747,1504.176c4.475-0.298,8.991-0.298,13.472,0
		c-0.031,1.509-0.051,3.033-0.057,4.568c-0.411,0.359-0.811,0.734-1.191,1.129c-3.675,0.015-7.339,0.031-11.003-0.01
		c-0.4-0.38-0.785-0.744-1.16-1.088C1273.788,1507.229,1273.763,1505.695,1273.747,1504.176z"/>
	<path opacity="0.85" enable-background="new    " d="M1297.314,1504.181c4.337-0.318,8.719-0.292,13.061-0.021
		c-0.067,1.504,0.057,3.033-0.159,4.552c-0.616,1.218-1.79,0.553-11.732,0.78c-0.4-0.431-0.78-0.842-1.15-1.242
		C1297.35,1506.88,1297.34,1505.52,1297.314,1504.181z"/>
	<path opacity="0.85" enable-background="new    " d="M1320.465,1504.191c4.475-0.313,8.991-0.333,13.472-0.01
		c-0.036,1.339,0.021,2.694-0.062,4.054c-0.298,0.754-1.108,1.144-1.652,1.719c-12.549-0.636-8.202,0.905-11.712-1.191
		C1320.516,1507.229,1320.485,1505.705,1320.465,1504.191z"/>
	<path opacity="0.85" enable-background="new    " d="M1344.047,1504.186c4.475-0.323,8.992-0.308,13.477,0
		c-0.041,1.509-0.062,3.033-0.072,4.568c-0.564,0.37-1.129,0.749-1.658,1.16c-3.336-0.087-6.672,0.021-9.992-0.036
		c-0.734-0.37-1.222-1.037-1.776-1.56C1344.078,1506.927,1344.073,1505.546,1344.047,1504.186z"/>
	<path opacity="0.85" enable-background="new    " d="M1367.285,1504.427c1.686-0.616,12.027-0.709,13.662,0.026
		c0.287,1.889,0.452,4.46-1.565,5.481c-3.505-0.072-7.01-0.098-10.505,0.015c-0.642-0.529-1.206-1.114-1.694-1.735
		C1367.208,1506.942,1367.162,1505.674,1367.285,1504.427z"/>
	<path opacity="0.85" enable-background="new    " d="M1390.765,1504.181c4.475-0.313,8.986-0.298,13.467-0.01
		c-0.026,1.514-0.046,3.038-0.057,4.568c-0.411,0.359-0.801,0.734-1.175,1.129c-3.669,0.031-7.339,0.026-10.998,0
		c-0.411-0.395-0.801-0.775-1.175-1.139C1390.801,1507.204,1390.78,1505.685,1390.765,1504.181z"/>
	<path opacity="0.85" enable-background="new    " d="M1413.916,1504.222c4.614-0.364,9.279-0.375,13.898-0.01
		c-0.036,1.35-0.051,2.71-0.041,4.08c-0.416,0.503-0.816,1.026-1.201,1.56c-3.803,0.036-7.601,0.092-11.393-0.031
		c-0.426-0.539-0.831-1.057-1.226-1.56C1413.947,1506.901,1413.926,1505.556,1413.916,1504.222z"/>
	<path opacity="0.85" enable-background="new    " d="M1438.447,1503.991c4.167,0.087,8.355-0.216,12.517,0.19
		c-0.164,1.745,0.38,3.705-0.708,5.25c-3.936,0.046-7.868,0.026-11.794,0.015C1438.355,1507.62,1438.293,1505.798,1438.447,1503.991
		z"/>
	<path opacity="0.85" enable-background="new    " d="M1460.628,1504.248c4.752-0.406,9.571-0.421,14.334,0.015
		c-0.072,1.801,0.221,3.736-0.708,5.389c-1.356,0.718-2.057,0.787-12.014,0.642c-0.528-0.513-1.042-1.006-1.534-1.488
		C1460.669,1507.276,1460.649,1505.756,1460.628,1504.248z"/>
	<path opacity="0.85" enable-background="new    " d="M1484.246,1504.299c1.911-0.346,12.356-0.665,13.729,0.144
		c0.18,1.242,0.077,2.52,0.144,3.798c-0.523,0.6-1.088,1.165-1.673,1.709c-3.505-0.133-7.01-0.046-10.51-0.051
		c-0.251-0.174-0.765-0.523-1.021-0.693c-0.169-0.262-0.508-0.785-0.672-1.042
		C1484.231,1506.86,1484.231,1505.572,1484.246,1504.299z"/>
	<path opacity="0.85" enable-background="new    " d="M1507.351,1504.263c4.614-0.457,9.284-0.359,13.913-0.092
		c-0.041,1.509-0.072,3.023-0.077,4.552c-0.411,0.369-0.801,0.754-1.17,1.155c-3.875-0.015-7.739,0.072-11.599-0.051
		c-0.349-0.364-0.677-0.703-0.99-1.026C1507.392,1507.276,1507.372,1505.767,1507.351,1504.263z"/>
	<path opacity="0.85" enable-background="new    " d="M1531.354,1504.186c4.342-0.313,8.73-0.328,13.077,0
		c-0.072,1.514-0.031,3.038-0.128,4.573c-0.526,1-1.357,0.784-11.065,0.698c-0.949,0.169-1.458-0.523-1.894-1.165
		C1531.39,1506.911,1531.38,1505.541,1531.354,1504.186z"/>
	<path opacity="0.85" enable-background="new    " d="M1555.449,1504.001c4.142,0.01,8.288-0.103,12.435,0.082
		c0.041,1.504,0.18,3.028-0.051,4.542c-0.496,1.061-0.618,0.85-12.343,0.831C1555.362,1507.63,1555.326,1505.808,1555.449,1504.001z
		"/>
	<path opacity="0.85" enable-background="new    " d="M1578.077,1504.176c4.47-0.298,8.986-0.308,13.467,0.005
		c-0.128,1.966,0.534,4.285-1.247,5.707c-3.495,0.01-6.985-0.041-10.469,0.036c-0.59-0.38-1.15-0.734-1.704-1.078
		C1578.113,1507.281,1578.103,1505.72,1578.077,1504.176z"/>
	<path opacity="0.85" enable-background="new    " d="M1601.218,1504.253c4.609-0.426,9.294-0.426,13.913,0
		c-0.057,1.304-0.062,2.628-0.01,3.957c-0.575,0.559-1.129,1.129-1.673,1.714c-3.516-0.062-7.031-0.067-10.536,0.005
		c-0.575-0.595-1.129-1.175-1.668-1.745C1601.254,1506.865,1601.243,1505.551,1601.218,1504.253z"/>
	<path opacity="0.85" enable-background="new    " d="M1624.374,1504.268c4.752-0.447,9.571-0.421,14.329-0.026
		c-0.041,1.509-0.062,3.033-0.072,4.568c-0.534,0.472-1.052,0.97-1.55,1.478C1623.539,1510.414,1624.43,1511.042,1624.374,1504.268z
		"/>
	<path opacity="0.85" enable-background="new    " d="M1647.946,1504.237c4.614-0.416,9.279-0.349,13.908-0.046
		c-0.031,1.483-0.067,2.977-0.087,4.48c-0.421,0.375-0.821,0.765-1.201,1.17c-3.967,0.056-7.934,0.113-11.886-0.046
		C1647.725,1508.086,1647.992,1506.095,1647.946,1504.237z"/>
	<path opacity="0.85" enable-background="new    " d="M1671.523,1504.212c4.614-0.359,9.279-0.354,13.898,0.01
		c-0.036,1.334-0.051,2.684-0.041,4.044c-0.426,0.508-0.837,1.026-1.221,1.57c-3.793,0.087-7.585,0.062-11.373,0.016
		c-0.431-0.539-0.837-1.057-1.227-1.565C1671.548,1506.916,1671.533,1505.562,1671.523,1504.212z"/>
	<path opacity="0.85" enable-background="new    " d="M1695.089,1504.176c4.475-0.303,8.991-0.293,13.482-0.005
		c-0.046,1.524-0.072,3.069-0.041,4.619c-1.694,1.796-4.301,0.888-6.461,1.093c-2.33-0.231-5.076,0.744-6.928-1.083
		C1695.141,1507.245,1695.11,1505.705,1695.089,1504.176z"/>
	<path opacity="0.85" enable-background="new    " d="M1719.138,1504.089c4.311-0.062,8.684-0.395,12.974,0.216
		c-0.031,1.303-0.026,2.622,0.051,3.952c-0.534,0.585-1.098,1.155-1.678,1.694c-3.521-0.133-7.041-0.046-10.557-0.051
		c-0.257-0.185-0.77-0.549-1.026-0.734c-0.713-1.37-0.693-2.92-0.693-4.403c0.236-0.041,0.703-0.118,0.939-0.159
		c0.026,1.145,0.067,2.309,0.159,3.48C1719.359,1506.737,1719.272,1505.397,1719.138,1504.089z"/>
	<path opacity="0.85" enable-background="new    " d="M1741.807,1504.191c4.475-0.313,8.997-0.339,13.482,0
		c-0.108,1.452,0.139,2.972-0.2,4.419c-0.493,0.467-1.021,0.883-1.514,1.334c-3.346-0.118-6.692-0.062-10.028-0.031
		c-0.585-0.406-1.134-0.79-1.678-1.155C1741.853,1507.224,1741.833,1505.7,1741.807,1504.191z"/>
	<path opacity="0.85" enable-background="new    " d="M1764.968,1504.243c4.609-0.421,9.274-0.354,13.898-0.057
		c-0.026,1.478-0.062,2.966-0.087,4.46c-0.416,0.39-0.811,0.795-1.185,1.221c-3.972,0-7.939,0.103-11.896-0.072
		C1764.727,1508.092,1765.014,1506.095,1764.968,1504.243z"/>
	<path opacity="0.85" enable-background="new    " d="M1788.761,1504.402c1.223-0.747,11.44-0.389,12.44-0.318
		c1.889-0.051,1.006,2.361,1.227,3.552c-0.488,0.97-1.237,1.75-2.156,2.315c-3.356-0.113-6.718-0.092-10.064-0.01
		C1788.345,1508.718,1788.206,1506.342,1788.761,1504.402z"/>
	<path opacity="0.85" enable-background="new    " d="M742.768,1505.798c48.796-0.118,97.598-0.051,146.394-0.036
		c-0.015,2.602,0.036,5.204-0.036,7.816c-48.006-0.056-96.012-0.015-144.023-0.021
		C744.544,1510.899,743.522,1508.389,742.768,1505.798z"/>
	<path opacity="0.85" enable-background="new    " d="M1806.785,1505.762c48.796-0.015,97.592-0.077,146.389,0.031
		c-0.78,2.607-1.729,5.158-2.407,7.801c-47.996-0.103-95.991,0.005-143.982-0.056
		C1806.78,1510.94,1806.774,1508.348,1806.785,1505.762z"/>
	<path opacity="0.85" enable-background="new    " d="M212.866,1521.512c18.261-0.052,441.324-0.15,448.029,0.01
		c-9.318,7.702-9.069,9.026-12.594,15.063c-12.927,0.076-435.784,0.153-437.929-0.031
		C211.578,1531.617,212.384,1526.567,212.866,1521.512z"/>
	<path opacity="0.85" enable-background="new    " d="M701.023,1521.579c6.559-0.262,13.133-0.103,19.702-0.118
		c1.263,4.911,1.442,10.008,1.375,15.057c-2.982,0.298-5.974,0.036-8.961,0.164C708.786,1526.628,703.627,1523.838,701.023,1521.579
		z"/>
	<path opacity="0.85" enable-background="new    " d="M746.674,1521.497c31.645-0.08,1200.171-0.106,1202.615,0.036
		c-0.734,5.009-1.006,10.064-0.939,15.13c-0.035,0-1200.752,0.005-1200.752,0.005
		C747.633,1531.592,747.418,1526.516,746.674,1521.497z"/>
	<path opacity="0.85" enable-background="new    " d="M1975.221,1521.461c6.569,0.021,13.149-0.154,19.718,0.123
		c-5.384,3.757-9.679,8.981-12.127,15.094c-2.997-0.133-6.005,0.164-8.976-0.18
		C1973.784,1531.453,1973.948,1526.362,1975.221,1521.461z"/>
	<path opacity="0.85" enable-background="new    " d="M2034.984,1521.543c18.938-0.155,431.401-0.135,448.096-0.036
		c0.482,5.05,1.278,10.105,2.5,15.047c-15.08,0.156-422.587,0.137-437.944,0.031
		C2045.01,1532.014,2044.036,1528.533,2034.984,1521.543z"/>
</g>
</svg>
