<?xml version="1.0" encoding="iso-8859-1"?>
<!-- Uploaded to: SVG Repo, www.svgrepo.com, Generator: SVG Repo Mixer Tools -->
<svg height="800px" width="800px" version="1.1" id="Layer_1" xmlns="http://www.w3.org/2000/svg" xmlns:xlink="http://www.w3.org/1999/xlink" 
	 viewBox="0 0 512 512" xml:space="preserve">
<path style="fill:#F5F4F5;" d="M435.168,269.639c-23.667,0-42.921,19.254-42.921,42.921c0,23.667,19.254,42.921,42.921,42.921
	c23.667,0,42.921-19.254,42.921-42.921C478.089,288.893,458.835,269.639,435.168,269.639z"/>
<g>
	<path style="fill:#CCCCCC;" d="M435.168,235.727c-42.366,0-76.832,34.466-76.832,76.832s34.466,76.832,76.832,76.832
		S512,354.925,512,312.559S477.534,235.727,435.168,235.727z M435.168,355.48c-23.667,0-42.921-19.254-42.921-42.921
		c0-23.667,19.254-42.921,42.921-42.921c23.667,0,42.921,19.254,42.921,42.921C478.089,336.226,458.835,355.48,435.168,355.48z"/>
	<path style="fill:#CCCCCC;" d="M392.86,183.072H48.544c-9.364,0-17.49,7.988-17.49,17.354v69.826
		c0,38.118,11.063,75.277,31.488,107.461c20.424,32.184,49.584,57.774,84.074,74.004l17.359,8.138
		c18.004,8.472,37.365,12.709,56.693,12.709s38.673-4.237,56.676-12.709l17.302-8.138c34.49-16.23,63.478-41.82,83.903-74.004
		c20.424-32.184,31.183-69.343,31.183-107.461v-69.826C409.732,191.06,402.224,183.072,392.86,183.072z"/>
</g>
<path style="fill:#E1E1E1;" d="M220.652,183.072H48.544c-9.364,0-17.49,7.988-17.49,17.354v69.826
	c0,38.118,11.063,75.277,31.488,107.461c20.424,32.184,49.584,57.774,84.074,74.004l17.359,8.138
	c18.004,8.472,37.365,12.709,56.693,12.709L220.652,183.072z"/>
<path style="fill:#16A5D9;" d="M377.21,422.904c-9.364,0-16.956,7.722-16.956,16.765H81.05c0-9.043-7.592-16.765-16.956-16.765
	s-16.956,7.496-16.956,16.86c0,36.775,29.918,66.598,66.693,66.598h213.642c36.775,0,66.693-29.823,66.693-66.598
	C394.165,430.4,386.574,422.904,377.21,422.904z"/>
<g>
	<path style="fill:#4AD0FF;" d="M220.669,439.669H81.05c0-9.043-7.592-16.765-16.956-16.765s-16.956,7.496-16.956,16.86
		c0,36.775,29.918,66.598,66.693,66.598h106.821L220.669,439.669z"/>
	<path style="fill:#4AD0FF;" d="M424.448,415.931H16.956C7.592,415.931,0,423.522,0,432.886c0,9.364,7.592,16.956,16.956,16.956
		h407.493c9.364,0,16.956-7.592,16.956-16.956C441.404,423.522,433.813,415.931,424.448,415.931z"/>
</g>
<path style="fill:#99E5FF;" d="M220.665,415.931H16.956C7.592,415.931,0,423.522,0,432.886c0,9.364,7.592,16.956,16.956,16.956
	h203.696L220.665,415.931z"/>
<g>
	<path style="fill:#CCCCCC;" d="M159.242,149.855c-3.727,0-7.479-1.223-10.611-3.739l-8.316-6.683
		c-11.398-9.161-17.823-22.799-17.624-37.42c0.198-14.621,6.988-28.082,18.63-36.93c4.422-3.362,5.181-7.862,5.238-10.245
		c0.058-2.384-0.479-6.916-4.733-10.488c-7.17-6.024-8.1-16.719-2.078-23.89s16.718-8.1,23.89-2.078
		c11.043,9.276,17.174,22.864,16.822,37.281c-0.352,14.417-7.138,27.691-18.62,36.418c-3.276,2.489-5.186,6.276-5.242,10.389
		c-0.055,4.113,1.751,7.951,4.958,10.527l8.316,6.683c7.3,5.866,8.462,16.539,2.596,23.839
		C169.12,147.689,164.202,149.855,159.242,149.855z"/>
	<path style="fill:#CCCCCC;" d="M229.656,158.628c-3.727,0-7.479-1.223-10.611-3.739l-9.754-7.838
		c-12.66-10.173-19.795-25.323-19.575-41.563c0.219-16.24,7.762-31.191,20.693-41.018c4.501-3.421,7.162-8.625,7.3-14.277
		c0.138-5.652-2.266-10.979-6.595-14.616c-7.17-6.023-8.1-16.718-2.077-23.888c6.022-7.17,16.718-8.1,23.888-2.077
		c12.265,10.302,19.075,25.395,18.684,41.409c-0.391,16.014-7.929,30.757-20.681,40.448c-4.564,3.469-7.227,8.746-7.303,14.478
		c-0.078,5.732,2.44,11.079,6.909,14.67l9.754,7.838c7.3,5.866,8.462,16.539,2.595,23.838
		C239.534,156.46,234.617,158.628,229.656,158.628z"/>
	<path style="fill:#CCCCCC;" d="M297.419,149.855c-3.727,0-7.479-1.223-10.611-3.739l-8.316-6.683
		c-11.398-9.161-17.823-22.799-17.624-37.42c0.198-14.621,6.988-28.082,18.63-36.93c4.422-3.362,5.181-7.862,5.238-10.245
		c0.058-2.384-0.479-6.916-4.733-10.488c-7.17-6.024-8.1-16.719-2.078-23.89s16.718-8.1,23.889-2.078
		c11.043,9.276,17.174,22.864,16.822,37.281c-0.352,14.417-7.138,27.691-18.62,36.418c-3.276,2.489-5.186,6.276-5.242,10.389
		c-0.055,4.113,1.751,7.951,4.958,10.527l8.316,6.683c7.3,5.866,8.462,16.539,2.596,23.839
		C307.298,147.689,302.381,149.855,297.419,149.855z"/>
</g>
</svg>